<svg width="53" height="55" viewBox="0 0 53 55" fill="none" xmlns="http://www.w3.org/2000/svg">
<path d="M52.5 39.3803C52.4988 42.9701 51.2718 46.4519 49.0219 49.2493C46.7721 52.0466 43.6344 53.9918 40.1284 54.7627L38.4536 49.7385C39.9872 49.4859 41.4457 48.8963 42.724 48.012C44.0022 47.1278 45.0684 45.971 45.8456 44.625H39.375C37.9826 44.625 36.6473 44.0719 35.6627 43.0873C34.6781 42.1027 34.125 40.7674 34.125 39.375V28.875C34.125 27.4826 34.6781 26.1473 35.6627 25.1627C36.6473 24.1781 37.9826 23.625 39.375 23.625H47.0872C46.4467 18.5506 43.9764 13.8843 40.14 10.5018C36.3036 7.11921 31.3647 5.25283 26.25 5.25283C21.1353 5.25283 16.1964 7.11921 12.36 10.5018C8.52358 13.8843 6.05333 18.5506 5.41275 23.625H13.125C14.5174 23.625 15.8527 24.1781 16.8373 25.1627C17.8219 26.1473 18.375 27.4826 18.375 28.875V39.375C18.375 40.7674 17.8219 42.1027 16.8373 43.0873C15.8527 44.0719 14.5174 44.625 13.125 44.625H5.25C3.85761 44.625 2.52225 44.0719 1.53769 43.0873C0.553123 42.1027 0 40.7674 0 39.375V26.25C0 11.7521 11.7521 0 26.25 0C40.7479 0 52.5 11.7521 52.5 26.25V39.3803Z" fill="#0063A0"/>
</svg>
