<svg width="53" height="56" viewBox="0 0 53 56" fill="none" xmlns="http://www.w3.org/2000/svg">
<path d="M52.75 39.6303C52.7488 43.2201 51.5218 46.7019 49.2719 49.4993C47.0221 52.2966 43.8844 54.2418 40.3784 55.0127L38.7036 49.9885C40.2372 49.7359 41.6957 49.1463 42.974 48.262C44.2522 47.3778 45.3184 46.221 46.0956 44.875H39.625C38.2326 44.875 36.8973 44.3219 35.9127 43.3373C34.9281 42.3527 34.375 41.0174 34.375 39.625V29.125C34.375 27.7326 34.9281 26.3973 35.9127 25.4127C36.8973 24.4281 38.2326 23.875 39.625 23.875H47.3372C46.6967 18.8006 44.2264 14.1343 40.39 10.7518C36.5536 7.36921 31.6147 5.50283 26.5 5.50283C21.3853 5.50283 16.4464 7.36921 12.61 10.7518C8.77358 14.1343 6.30333 18.8006 5.66275 23.875H13.375C14.7674 23.875 16.1027 24.4281 17.0873 25.4127C18.0719 26.3973 18.625 27.7326 18.625 29.125V39.625C18.625 41.0174 18.0719 42.3527 17.0873 43.3373C16.1027 44.3219 14.7674 44.875 13.375 44.875H5.5C4.10761 44.875 2.77225 44.3219 1.78769 43.3373C0.803123 42.3527 0.25 41.0174 0.25 39.625V26.5C0.25 12.0021 12.0021 0.25 26.5 0.25C40.9979 0.25 52.75 12.0021 52.75 26.5V39.6303Z" fill="white"/>
</svg>
