<svg width="45" height="45" viewBox="0 0 45 45" fill="none" xmlns="http://www.w3.org/2000/svg">
<path d="M20.2917 2.62504H5.9375C5.05897 2.62504 4.21642 2.97404 3.59521 3.59525C2.97399 4.21646 2.625 5.05901 2.625 5.93754V30.2292C2.625 31.1077 2.97399 31.9503 3.59521 32.5715C4.21642 33.1927 5.05897 33.5417 5.9375 33.5417H39.0625C39.941 33.5417 40.7836 33.1927 41.4048 32.5715C42.026 31.9503 42.375 31.1077 42.375 30.2292V20.2917M22.5 33.5417V42.375M11.4583 42.375H33.5417M32.7687 2.62504C30.757 2.62504 29.125 4.20952 29.125 6.1639C29.125 9.70165 33.4312 12.9181 35.75 13.6667C38.0687 12.9181 42.375 9.70275 42.375 6.1639C42.375 4.20952 40.7441 2.62504 38.7312 2.62504C38.1508 2.62229 37.578 2.75715 37.0598 3.01856C36.5416 3.27997 36.0927 3.66049 35.75 4.12892C35.4073 3.66049 34.9584 3.27997 34.4402 3.01856C33.922 2.75715 33.3492 2.62229 32.7687 2.62504Z" stroke="white" stroke-width="5" stroke-linecap="round" stroke-linejoin="round"/>
</svg>
