<svg width="46" height="46" viewBox="0 0 46 46" fill="none" xmlns="http://www.w3.org/2000/svg">
<path d="M20.6667 3.00004H6.3125C5.43397 3.00004 4.59142 3.34904 3.97021 3.97025C3.34899 4.59146 3 5.43401 3 6.31254V30.6042C3 31.4827 3.34899 32.3253 3.97021 32.9465C4.59142 33.5677 5.43397 33.9167 6.3125 33.9167H39.4375C40.316 33.9167 41.1586 33.5677 41.7798 32.9465C42.401 32.3253 42.75 31.4827 42.75 30.6042V20.6667M22.875 33.9167V42.75M11.8333 42.75H33.9167M33.1437 3.00004C31.132 3.00004 29.5 4.58452 29.5 6.5389C29.5 10.0766 33.8062 13.2931 36.125 14.0417C38.4437 13.2931 42.75 10.0777 42.75 6.5389C42.75 4.58452 41.1191 3.00004 39.1062 3.00004C38.5258 2.99729 37.953 3.13215 37.4348 3.39356C36.9166 3.65497 36.4677 4.03549 36.125 4.50392C35.7823 4.03549 35.3334 3.65497 34.8152 3.39356C34.297 3.13215 33.7242 2.99729 33.1437 3.00004Z" stroke="#0063A0" stroke-width="5" stroke-linecap="round" stroke-linejoin="round"/>
</svg>
