<svg width="42" height="54" viewBox="0 0 42 54" fill="none" xmlns="http://www.w3.org/2000/svg">
<path d="M27.75 45.5625C27.75 46.0101 27.9278 46.4393 28.2443 46.7557C28.5607 47.0722 28.9899 47.25 29.4375 47.25H32.8125C33.2601 47.25 33.6893 47.0722 34.0057 46.7557C34.3222 46.4393 34.5 46.0101 34.5 45.5625V25.3125C34.5 24.8649 34.3222 24.4357 34.0057 24.1193C33.6893 23.8028 33.2601 23.625 32.8125 23.625H29.4375C28.9899 23.625 28.5607 23.8028 28.2443 24.1193C27.9278 24.4357 27.75 24.8649 27.75 25.3125V45.5625ZM19.3125 47.25C18.8649 47.25 18.4357 47.0722 18.1193 46.7557C17.8028 46.4393 17.625 46.0101 17.625 45.5625V32.0625C17.625 31.6149 17.8028 31.1857 18.1193 30.8693C18.4357 30.5528 18.8649 30.375 19.3125 30.375H22.6875C23.1351 30.375 23.5643 30.5528 23.8807 30.8693C24.1972 31.1857 24.375 31.6149 24.375 32.0625V45.5625C24.375 46.0101 24.1972 46.4393 23.8807 46.7557C23.5643 47.0722 23.1351 47.25 22.6875 47.25H19.3125ZM9.1875 47.25C8.73995 47.25 8.31073 47.0722 7.99426 46.7557C7.67779 46.4393 7.5 46.0101 7.5 45.5625V38.8125C7.5 38.3649 7.67779 37.9357 7.99426 37.6193C8.31073 37.3028 8.73995 37.125 9.1875 37.125H12.5625C13.0101 37.125 13.4393 37.3028 13.7557 37.6193C14.0722 37.9357 14.25 38.3649 14.25 38.8125V45.5625C14.25 46.0101 14.0722 46.4393 13.7557 46.7557C13.4393 47.0722 13.0101 47.25 12.5625 47.25H9.1875Z" fill="white"/>
<path d="M41.25 47.25V15.1875L26.0625 0H7.5C5.70979 0 3.9929 0.711159 2.72703 1.97703C1.46116 3.2429 0.75 4.95979 0.75 6.75V47.25C0.75 49.0402 1.46116 50.7571 2.72703 52.023C3.9929 53.2888 5.70979 54 7.5 54H34.5C36.2902 54 38.0071 53.2888 39.273 52.023C40.5388 50.7571 41.25 49.0402 41.25 47.25ZM26.0625 10.125C26.0625 11.4677 26.5959 12.7553 27.5453 13.7047C28.4947 14.6541 29.7823 15.1875 31.125 15.1875H37.875V47.25C37.875 48.1451 37.5194 49.0035 36.8865 49.6365C36.2535 50.2694 35.3951 50.625 34.5 50.625H7.5C6.60489 50.625 5.74645 50.2694 5.11351 49.6365C4.48058 49.0035 4.125 48.1451 4.125 47.25V6.75C4.125 5.85489 4.48058 4.99645 5.11351 4.36351C5.74645 3.73058 6.60489 3.375 7.5 3.375H26.0625V10.125Z" fill="white"/>
</svg>
