<svg width="41" height="54" viewBox="0 0 41 54" fill="none" xmlns="http://www.w3.org/2000/svg">
<path d="M27 45.5625C27 46.0101 27.1778 46.4393 27.4943 46.7557C27.8107 47.0722 28.2399 47.25 28.6875 47.25H32.0625C32.5101 47.25 32.9393 47.0722 33.2557 46.7557C33.5722 46.4393 33.75 46.0101 33.75 45.5625V25.3125C33.75 24.8649 33.5722 24.4357 33.2557 24.1193C32.9393 23.8028 32.5101 23.625 32.0625 23.625H28.6875C28.2399 23.625 27.8107 23.8028 27.4943 24.1193C27.1778 24.4357 27 24.8649 27 25.3125V45.5625ZM18.5625 47.25C18.1149 47.25 17.6857 47.0722 17.3693 46.7557C17.0528 46.4393 16.875 46.0101 16.875 45.5625V32.0625C16.875 31.6149 17.0528 31.1857 17.3693 30.8693C17.6857 30.5528 18.1149 30.375 18.5625 30.375H21.9375C22.3851 30.375 22.8143 30.5528 23.1307 30.8693C23.4472 31.1857 23.625 31.6149 23.625 32.0625V45.5625C23.625 46.0101 23.4472 46.4393 23.1307 46.7557C22.8143 47.0722 22.3851 47.25 21.9375 47.25H18.5625ZM8.4375 47.25C7.98995 47.25 7.56073 47.0722 7.24426 46.7557C6.92779 46.4393 6.75 46.0101 6.75 45.5625V38.8125C6.75 38.3649 6.92779 37.9357 7.24426 37.6193C7.56073 37.3028 7.98995 37.125 8.4375 37.125H11.8125C12.2601 37.125 12.6893 37.3028 13.0057 37.6193C13.3222 37.9357 13.5 38.3649 13.5 38.8125V45.5625C13.5 46.0101 13.3222 46.4393 13.0057 46.7557C12.6893 47.0722 12.2601 47.25 11.8125 47.25H8.4375Z" fill="#0063A0"/>
<path d="M40.5 47.25V15.1875L25.3125 0H6.75C4.95979 0 3.2429 0.711159 1.97703 1.97703C0.711158 3.2429 0 4.95979 0 6.75V47.25C0 49.0402 0.711158 50.7571 1.97703 52.023C3.2429 53.2888 4.95979 54 6.75 54H33.75C35.5402 54 37.2571 53.2888 38.523 52.023C39.7888 50.7571 40.5 49.0402 40.5 47.25ZM25.3125 10.125C25.3125 11.4677 25.8459 12.7553 26.7953 13.7047C27.7447 14.6541 29.0323 15.1875 30.375 15.1875H37.125V47.25C37.125 48.1451 36.7694 49.0035 36.1365 49.6365C35.5035 50.2694 34.6451 50.625 33.75 50.625H6.75C5.85489 50.625 4.99645 50.2694 4.36351 49.6365C3.73058 49.0035 3.375 48.1451 3.375 47.25V6.75C3.375 5.85489 3.73058 4.99645 4.36351 4.36351C4.99645 3.73058 5.85489 3.375 6.75 3.375H25.3125V10.125Z" fill="#0063A0"/>
</svg>
